<svg width="38" height="32" viewBox="0 0 38 32" fill="none" xmlns="http://www.w3.org/2000/svg">
<g clip-path="url(#clip0_591_27497)">
<path d="M22.3307 24.3086C20.4559 26.2375 17.8161 27.4419 14.8947 27.4419C9.216 27.4419 4.59896 22.8967 4.59896 17.313C4.59896 11.7264 9.216 7.18413 14.8947 7.18413C15.7064 7.18413 16.4954 7.27894 17.2529 7.45376C17.0677 6.89969 16.9668 6.30561 16.9668 5.69228C16.9668 4.68635 17.2333 3.73968 17.7031 2.92191C16.7921 2.74857 15.8554 2.6582 14.8947 2.6582C6.66805 2.6582 0 9.2182 0 17.313C0 25.4049 6.66805 31.9649 14.8962 31.9649C19.6713 31.9649 23.9179 29.7545 26.6436 26.3189C25.0187 26.0241 23.5415 25.3145 22.3307 24.3086C22.3322 24.3086 22.3307 24.3086 22.3307 24.3086Z" fill="#468FCD"/>
<path d="M28.3379 23.0234C26.7733 23.0234 25.3502 22.4101 24.3066 21.416C25.3487 22.4101 26.7733 23.0234 28.3379 23.0234C28.4328 23.0234 28.5261 23.0205 28.6195 23.016C28.5246 23.0205 28.4313 23.0234 28.3379 23.0234Z" fill="#468FCD"/>
<path d="M26.4555 11.916C25.6439 12.1901 24.909 12.6331 24.3066 13.2079C24.9105 12.6331 25.6439 12.1916 26.4555 11.916Z" fill="#468FCD"/>
<path d="M28.6177 23.016C28.5244 23.0205 28.4325 23.0235 28.3361 23.0235C26.7715 23.0235 25.347 22.4116 24.3049 21.416C23.2101 20.379 22.531 18.9212 22.531 17.3123C22.531 15.7035 23.2101 14.2457 24.3049 13.2086C24.9087 12.6323 25.6421 12.1909 26.4538 11.9168C27.0456 11.7168 27.6766 11.6027 28.3346 11.6027C28.4295 11.6027 28.5229 11.6042 28.6162 11.6101C31.6852 11.7553 34.1398 14.259 34.1398 17.3123C34.1413 20.3672 31.6867 22.8709 28.6177 23.016ZM28.3376 8.15234C28.1871 8.15234 28.0395 8.15531 27.8919 8.16123C27.7172 8.51383 27.5109 8.8442 27.267 9.14938C27.1194 9.34049 26.9598 9.51975 26.7881 9.68864L26.7851 9.6916C25.8575 10.6012 24.6166 11.2042 23.2342 11.3242C23.2222 11.3272 23.2071 11.3272 23.1966 11.3272C23.0384 11.3405 22.8788 11.3479 22.7192 11.3479C22.2674 11.3479 21.8292 11.296 21.4076 11.1968C19.9288 12.8175 19.0298 14.9598 19.0298 17.3109C19.0298 20.1183 20.3128 22.6279 22.3322 24.3079C23.5414 25.3138 25.0187 26.0235 26.6435 26.3183C27.1917 26.4175 27.7594 26.4694 28.3376 26.4694C33.4787 26.4694 37.647 22.3701 37.647 17.3109C37.647 12.2531 33.4772 8.15234 28.3376 8.15234Z" fill="#A2CD3A"/>
<path d="M25.0021 3.15415C25.7144 3.77637 26.1677 4.68155 26.1677 5.69192C26.1677 6.26822 26.0216 6.81044 25.7596 7.286C25.1798 8.35415 24.0339 9.08304 22.7192 9.08304C21.263 9.08304 20.0177 8.1897 19.5117 6.93489C19.3973 6.65192 19.3189 6.35118 19.2858 6.03711C19.2738 5.92304 19.2677 5.80748 19.2677 5.69192C19.2677 5.49933 19.2858 5.31266 19.3159 5.12896C19.4168 4.53933 19.6698 4.00007 20.0403 3.55711C20.6697 2.7897 21.638 2.29785 22.7177 2.29785C23.5941 2.29637 24.3923 2.62229 25.0021 3.15415ZM17.2544 7.45341C17.8718 9.31415 19.4454 10.7497 21.4061 11.1971C21.8277 11.2964 22.266 11.3482 22.7177 11.3482C22.8773 11.3482 23.037 11.3408 23.1951 11.3275C23.2056 11.3275 23.2207 11.3275 23.2327 11.3245C24.6151 11.2045 25.856 10.6016 26.7836 9.69192L26.7866 9.68896C26.9583 9.52007 27.1179 9.33933 27.2655 9.1497C27.5094 8.846 27.7173 8.51415 27.8904 8.16304C28.2594 7.41637 28.4672 6.57637 28.4672 5.69341C28.4672 2.56748 25.8921 0.0371094 22.7177 0.0371094C20.5643 0.0371094 18.691 1.20007 17.7046 2.92155C17.2348 3.74081 16.9683 4.686 16.9683 5.69192C16.9683 6.30526 17.0692 6.90081 17.2544 7.45341Z" fill="#F99E1E"/>
</g>
<defs>
<clipPath id="clip0_591_27497">
<rect width="37.6471" height="32" fill="white"/>
</clipPath>
</defs>
</svg>
